<svg xmlns="http://www.w3.org/2000/svg" xmlns:xlink="http://www.w3.org/1999/xlink" width="95" height="65" viewBox="0 0 95 65" fill="none"><path id="文本 1" fill-rule="evenodd" style="fill:#087EA4" transform="translate(0 0)  rotate(0 47.25000000000001 32.250000000000014)" opacity="1" d="M16.92 3.58C16.92 1.6 15.32 0 13.34 0L4.5 0C3.31 0 2.16 0.47 1.32 1.32C0.47 2.16 0 3.31 0 4.5L0 60C0 61.19 0.47 62.34 1.32 63.18C2.16 64.03 3.31 64.5 4.5 64.5L13.92 64.5C15.58 64.5 16.92 63.16 16.92 61.5C16.92 60.66 16.59 59.86 15.99 59.27C15.4 58.67 14.6 58.34 13.76 58.34L8.5 58.34C7.84 58.34 7.2 58.08 6.73 57.61C6.26 57.14 6 56.5 6 55.84L6 8.84C6 8.18 6.26 7.54 6.73 7.07C7.2 6.6 7.84 6.34 8.5 6.34L14.16 6.34C14.89 6.34 15.59 6.05 16.11 5.53C16.63 5.01 16.92 4.31 16.92 3.58ZM93.04 63.04C92.1 63.97 90.83 64.5 89.5 64.5L79.28 64.5C78.57 64.5 77.9 64.22 77.4 63.72C76.9 63.22 76.62 62.55 76.62 61.84C76.62 59.91 78.19 58.34 80.12 58.34L85.5 58.34C86.16 58.34 86.8 58.08 87.27 57.61C87.74 57.14 88 56.5 88 55.84L88 8.84C88 8.18 87.74 7.54 87.27 7.07C86.8 6.6 86.16 6.34 85.5 6.34L79.38 6.34C78.65 6.34 77.95 6.05 77.43 5.53C76.91 5.01 76.62 4.31 76.62 3.58C76.62 1.6 78.22 0 80.2 0L89.5 0C90.83 0 92.1 0.53 93.04 1.46C93.97 2.4 94.5 3.67 94.5 5L94.5 59.5C94.5 60.83 93.97 62.1 93.04 63.04ZM44.28 29.96C44.28 45.32 38.94 52.88 30.6 52.88C22.2 52.88 16.92 45.32 16.92 29.96C16.92 14.72 22.2 7.34 30.6 7.34C38.94 7.34 44.28 14.72 44.28 29.96ZM74.34 52.1L54.78 52.1C54.18 52.1 53.6 51.86 53.17 51.43C52.74 51 52.5 50.42 52.5 49.82C52.5 49.22 52.74 48.64 53.17 48.21C53.6 47.78 54.18 47.54 54.78 47.54L57.42 47.54C58.72 47.54 59.98 47.02 60.9 46.1C61.82 45.18 62.34 43.92 62.34 42.62L62.34 18.65C62.34 17.61 61.93 16.61 61.19 15.87C60.45 15.13 59.45 14.72 58.41 14.72L56.22 14.72C55.76 14.72 55.32 14.54 54.99 14.21C54.66 13.88 54.48 13.44 54.48 12.98L54.48 12.59C54.49 11.81 55.04 11.13 55.8 10.97C58.17 10.45 60.34 9.7 61.73 9.08C62.97 8.48 64.32 8.15 65.7 8.12C66.26 8.12 66.79 8.34 67.18 8.74C67.58 9.13 67.8 9.66 67.8 10.22L67.8 43.13C67.8 45.57 69.77 47.54 72.21 47.54L74.34 47.54C74.94 47.54 75.52 47.78 75.95 48.21C76.38 48.64 76.62 49.22 76.62 49.82C76.62 50.42 76.38 51 75.95 51.43C75.52 51.86 74.94 52.1 74.34 52.1ZM22.2 29.96C22.2 42.86 25.62 48.44 30.6 48.44C35.58 48.44 39 42.86 39 29.96C39 17.12 35.58 11.66 30.6 11.66C25.62 11.66 22.2 17.12 22.2 29.96Z" /></svg>